<svg t="1648137131603" class="icon" viewBox="0 0 1024 1024" version="1.1" xmlns="http://www.w3.org/2000/svg" p-id="11826" width="128" height="128"><path d="M846.4384 754.8928H192.3072c-65.8432 0-119.1936-53.3504-119.1936-119.1936V228.4032c0-65.8432 53.3504-119.1936 119.1936-119.1936h654.1824c65.8432 0 119.1936 53.3504 119.1936 119.1936v407.296c0 65.792-53.4016 119.1936-119.2448 119.1936z" fill="#80B7F9" p-id="11827"></path><path d="M266.0352 622.08c-7.7824 0-15.6672-2.2016-22.6304-6.8608-18.8416-12.544-23.9104-37.9392-11.4176-56.7808l128.768-193.4848a67.584 67.584 0 0 1 44.1856-28.9792c17.9712-3.1744 36.7616 1.1264 51.5072 11.8784l144.4864 105.472 139.8272-173.824c14.1824-17.6128 39.9872-20.4288 57.6-6.2464 17.6128 14.1824 20.4288 39.9872 6.2464 57.6l-148.5824 184.7296a67.23584 67.23584 0 0 1-92.1088 12.1856L420.4544 423.0656l-120.2688 180.736a40.87296 40.87296 0 0 1-34.1504 18.2784z" fill="#FFFFFF" p-id="11828"></path><path d="M459.9808 572.7232l-185.1904 232.704c-39.5264 49.7152-4.1472 123.0848 59.392 123.0848h370.3296c63.5392 0 98.9184-73.4208 59.392-123.0848l-185.1904-232.704c-30.3616-38.1952-88.32-38.1952-118.7328 0z" fill="#80B7F9" p-id="11829"></path><path d="M459.9808 572.7232l-144.9472 182.1696h408.6272l-144.9472-182.1696c-30.3616-38.1952-88.32-38.1952-118.7328 0z" fill="#3E8BF8" p-id="11830"></path></svg>